<svg xmlns="http://www.w3.org/2000/svg" viewBox="0 0 48 48" width="48" height="48">
  <circle cx="24" cy="24" r="24" fill="#c1602f"/>
  <path d="M13 22c0 7 4.5 12 11 12s11-5 11-12" stroke="#fdf9f1" stroke-width="3" fill="none" stroke-linecap="round"/>
  <path d="M13 22c0-1.2.9-2 2-2h18c1.1 0 2 .8 2 2" stroke="#fdf9f1" stroke-width="3" fill="none" stroke-linecap="round"/>
  <path d="M24 13c-3 0-4 2.2-4 4.2 0 1.6 1.5 2.8 3 1.8.4 1.6 2 2.3 3.2 1.2 1.5-1.4.6-4-1-5.4-.4-.3-.8-1.8-1.2-1.8z" fill="#6b7a3f"/>
</svg>
